<?xml version="1.0" encoding="UTF-8" standalone="no"?>
<svg
   version="1.1"
   id="Layer_1"
   x="0px"
   y="0px"
   viewBox="0 0 254 83"
   style="enable-background:new 0 0 254 83;"
   sodipodi:docname="elegant_reef.svg"
   inkscape:version="1.2 (dc2aeda, 2022-05-15)"
   xmlns:inkscape="http://www.inkscape.org/namespaces/inkscape"
   xmlns:sodipodi="http://sodipodi.sourceforge.net/DTD/sodipodi-0.dtd"
   xmlns="http://www.w3.org/2000/svg"
   xmlns:svg="http://www.w3.org/2000/svg">
  <defs
     id="defs58" />
  <sodipodi:namedview
     id="namedview56"
     pagecolor="#ffffff"
     bordercolor="#666666"
     borderopacity="1.0"
     inkscape:showpageshadow="2"
     inkscape:pageopacity="0.0"
     inkscape:pagecheckerboard="0"
     inkscape:deskcolor="#d1d1d1"
     showgrid="false"
     inkscape:zoom="4.9055118"
     inkscape:cx="131.99438"
     inkscape:cy="51.26886"
     inkscape:window-width="1601"
     inkscape:window-height="889"
     inkscape:window-x="2606"
     inkscape:window-y="187"
     inkscape:window-maximized="0"
     inkscape:current-layer="_x30_b742467-27ea-ae3f-7cfa-ca0e10ac04e7" />
  <style
     type="text/css"
     id="style47">
	.st0{fill:#2E3034;}
	.st1{fill:#488EFF;}
</style>
  <g
     id="_x30_b742467-27ea-ae3f-7cfa-ca0e10ac04e7"
     transform="matrix(2.2,0,0,2.2,103.8876416683197,132.35599603652955)">
    <g
       aria-label="ElegantOTA
Mercator Reef"
       id="text272"
       style="font-size:9.69697px;line-height:1.25;font-family:treb;-inkscape-font-specification:treb;stroke-width:0.454545">
      <path
         d="m -7.6235244,-43.48299 h -4.6448866 v -7.05019 h 4.6448866 v 0.833333 h -3.7073866 v 1.931819 h 3.7073866 v 0.833333 h -3.7073866 v 2.618371 h 3.7073866 z"
         style="font-family:sans-serif;-inkscape-font-specification:sans-serif"
         id="path1058" />
      <path
         d="M -5.3081834,-43.48299 H -6.198335 v -7.367425 h 0.8901516 z"
         style="font-family:sans-serif;-inkscape-font-specification:sans-serif"
         id="path1060" />
      <path
         d="M 0.88026378,-46.035074 H -3.0165166 q 0,0.48769 0.1467803,0.852273 0.1467803,0.359849 0.4024621,0.591856 0.2462121,0.227273 0.5823864,0.340909 0.3409091,0.113637 0.7481061,0.113637 0.5397727,0 1.0842803,-0.213069 0.54924244,-0.217803 0.78125002,-0.426136 h 0.0473485 v 0.970644 q -0.44981062,0.189394 -0.91856064,0.317235 -0.46875001,0.127841 -0.98484847,0.127841 -1.316288,0 -2.0549243,-0.710227 -0.7386364,-0.714963 -0.7386364,-2.026516 0,-1.297348 0.7054924,-2.059659 0.7102273,-0.76231 1.8655304,-0.76231 1.07007576,0 1.64772729,0.625 0.58238639,0.625 0.58238639,1.775568 z m -0.8664773,-0.681818 q -0.00473485,-0.700757 -0.35511365,-1.08428 -0.34564395,-0.383523 -1.05587123,-0.383523 -0.7149622,0 -1.1410985,0.421402 -0.4214016,0.421401 -0.4782197,1.046401 z"
         style="font-family:sans-serif;-inkscape-font-specification:sans-serif"
         id="path1062" />
      <path
         d="m 6.5194691,-44.084316 q 0,1.344697 -0.6107954,1.974432 -0.6107955,0.629735 -1.879735,0.629735 -0.4214015,0 -0.8238636,-0.06155 -0.3977273,-0.05682 -0.7859849,-0.16572 v -0.909091 h 0.047349 q 0.217803,0.08523 0.6912879,0.208333 0.4734849,0.127841 0.9469697,0.127841 0.4545455,0 0.752841,-0.108901 0.2982954,-0.108902 0.4640151,-0.303031 0.1657197,-0.184659 0.2367425,-0.445075 0.071023,-0.260417 0.071023,-0.582387 v -0.482954 q -0.4024621,0.321969 -0.7717803,0.482954 -0.3645834,0.15625 -0.9327652,0.15625 -0.9469697,0 -1.5056819,-0.681818 -0.5539773,-0.686553 -0.5539773,-1.931818 0,-0.681818 0.189394,-1.174243 0.1941288,-0.497159 0.5255682,-0.857007 0.3077651,-0.336174 0.7481061,-0.520834 0.4403409,-0.189393 0.8759469,-0.189393 0.4592804,0 0.7670455,0.0947 0.3125,0.08996 0.658144,0.279357 l 0.056818,-0.227273 h 0.8333333 z m -0.8901515,-0.852273 v -2.883523 q -0.3551137,-0.160984 -0.6628788,-0.227272 -0.3030303,-0.07102 -0.6060606,-0.07102 -0.7339016,0 -1.1553031,0.492424 -0.4214015,0.492424 -0.4214015,1.429924 0,0.890152 0.3125,1.349432 0.3125,0.459281 1.0369318,0.459281 0.3882576,0 0.7765152,-0.146781 0.3929924,-0.151515 0.719697,-0.402462 z"
         style="font-family:sans-serif;-inkscape-font-specification:sans-serif"
         id="path1064" />
      <path
         d="m 12.381211,-43.48299 h -0.885417 v -0.563447 q -0.118371,0.08049 -0.321969,0.227272 -0.198864,0.142046 -0.388258,0.227273 -0.222538,0.108902 -0.511364,0.179924 -0.2888255,0.07576 -0.6770831,0.07576 -0.7149621,0 -1.2121212,-0.473485 -0.4971591,-0.473485 -0.4971591,-1.207386 0,-0.601326 0.2556818,-0.970644 0.2604167,-0.374053 0.7386364,-0.587121 0.4829545,-0.213069 1.1600382,-0.288826 0.677083,-0.07576 1.453598,-0.113637 v -0.13731 q 0,-0.30303 -0.108901,-0.501894 -0.104167,-0.198864 -0.303031,-0.3125 -0.189394,-0.108902 -0.454545,-0.14678 -0.265152,-0.03788 -0.553977,-0.03788 -0.3503792,0 -0.7812504,0.0947 -0.4308712,0.08996 -0.8901515,0.265151 h -0.047349 v -0.904356 q 0.2604167,-0.07102 0.7528409,-0.15625 0.4924243,-0.08523 0.9706435,-0.08523 0.558713,0 0.970644,0.0947 0.416667,0.08996 0.719697,0.3125 0.298296,0.217803 0.454546,0.563447 0.15625,0.345644 0.15625,0.857007 z m -0.885417,-1.302084 v -1.472538 q -0.407197,0.02368 -0.961174,0.07102 -0.5492425,0.04735 -0.8712122,0.137311 -0.3835227,0.108901 -0.6202652,0.340909 -0.2367424,0.227273 -0.2367424,0.629735 0,0.454545 0.2746212,0.686553 0.2746212,0.227273 0.8380682,0.227273 0.4687504,0 0.8570074,-0.179925 0.388258,-0.184659 0.719697,-0.440341 z"
         style="font-family:sans-serif;-inkscape-font-specification:sans-serif"
         id="path1066" />
      <path
         d="m 18.517575,-43.48299 h -0.890152 v -3.011364 q 0,-0.364583 -0.04261,-0.681818 -0.04261,-0.32197 -0.15625,-0.501894 -0.118371,-0.198864 -0.340909,-0.293561 -0.222538,-0.09943 -0.577652,-0.09943 -0.364583,0 -0.762311,0.179925 -0.397727,0.179924 -0.76231,0.45928 v 3.948864 h -0.890152 v -5.288826 h 0.890152 v 0.587121 q 0.416667,-0.345644 0.861742,-0.539773 0.445076,-0.194128 0.913826,-0.194128 0.857008,0 1.306818,0.516098 0.449811,0.516099 0.449811,1.486742 z"
         style="font-family:sans-serif;-inkscape-font-specification:sans-serif"
         id="path1068" />
      <path
         d="m 22.977804,-43.530339 q -0.250947,0.06629 -0.549242,0.108902 -0.293561,0.04261 -0.525568,0.04261 -0.809659,0 -1.231061,-0.435606 -0.421401,-0.435606 -0.421401,-1.39678 v -2.8125 h -0.601326 v -0.748106 h 0.601326 v -1.519887 h 0.890151 v 1.519887 h 1.837121 v 0.748106 h -1.837121 v 2.410038 q 0,0.416667 0.01894,0.653409 0.01894,0.232008 0.132575,0.435606 0.104167,0.189394 0.284091,0.279356 0.184659,0.08523 0.558712,0.08523 0.217803,0 0.454546,-0.06155 0.236742,-0.06629 0.340909,-0.108901 h 0.04735 z"
         style="font-family:sans-serif;-inkscape-font-specification:sans-serif"
         id="path1070" />
      <path
         d="m 29.379319,-49.723521 q 0.430871,0.473485 0.658144,1.160038 0.232007,0.686553 0.232007,1.557765 0,0.871213 -0.236742,1.5625 -0.232008,0.686553 -0.653409,1.145834 -0.435606,0.478219 -1.032197,0.719697 -0.591856,0.241477 -1.354167,0.241477 -0.743371,0 -1.354167,-0.246212 -0.60606,-0.246212 -1.032197,-0.714962 -0.426136,-0.46875 -0.658143,-1.150568 -0.227273,-0.681819 -0.227273,-1.557766 0,-0.861742 0.227273,-1.54356 0.227272,-0.686553 0.662878,-1.174243 0.416667,-0.464015 1.032197,-0.710227 0.620266,-0.246212 1.349432,-0.246212 0.757576,0 1.358902,0.250947 0.60606,0.246212 1.027462,0.705492 z m -0.08523,2.717803 q 0,-1.373106 -0.615531,-2.116477 -0.61553,-0.748106 -1.680871,-0.748106 -1.074811,0 -1.690341,0.748106 -0.610795,0.743371 -0.610795,2.116477 0,1.387311 0.625,2.125947 0.625,0.733902 1.676136,0.733902 1.051136,0 1.671402,-0.733902 0.625,-0.738636 0.625,-2.125947 z"
         style="font-family:sans-serif;-inkscape-font-specification:sans-serif"
         id="path1072" />
      <path
         d="m 36.547882,-49.699847 h -2.518939 v 6.216857 h -0.9375 v -6.216857 h -2.51894 v -0.833333 h 5.975379 z"
         style="font-family:sans-serif;-inkscape-font-specification:sans-serif"
         id="path1074" />
      <path
         d="m 42.485377,-43.48299 h -0.999053 l -0.691288,-1.964962 h -3.049242 l -0.691288,1.964962 h -0.951705 l 2.566288,-7.05019 h 1.25 z m -1.979166,-2.769887 -1.235796,-3.461174 -1.24053,3.461174 z"
         style="font-family:sans-serif;-inkscape-font-specification:sans-serif"
         id="path1076" />
      <path
         d="m -5.9900017,-31.361778 h -0.9375 v -6.074811 l -1.9602273,4.133523 h -0.5587122 l -1.9460228,-4.133523 v 6.074811 h -0.875947 v -7.050189 h 1.278409 l 1.8797351,3.925189 1.8181819,-3.925189 h 1.3020833 z"
         style="font-family:sans-serif;-inkscape-font-specification:sans-serif"
         id="path1078" />
      <path
         d="M 0.25999877,-33.913861 H -3.6367817 q 0,0.487689 0.1467804,0.852273 0.1467803,0.359848 0.4024621,0.591856 0.2462121,0.227272 0.5823864,0.340909 0.3409091,0.113636 0.7481061,0.113636 0.5397727,0 1.08428029,-0.213068 0.54924244,-0.217803 0.78125002,-0.426136 h 0.0473485 v 0.970644 q -0.44981062,0.189393 -0.91856063,0.317234 -0.46874997,0.127841 -0.98484847,0.127841 -1.316288,0 -2.0549244,-0.710227 -0.7386363,-0.714962 -0.7386363,-2.026515 0,-1.297349 0.7054924,-2.059659 0.7102273,-0.762311 1.8655304,-0.762311 1.07007576,0 1.64772729,0.625 0.58238638,0.625 0.58238638,1.775568 z m -0.8664773,-0.681818 q -0.004735,-0.700758 -0.35511365,-1.084281 -0.34564392,-0.383522 -1.05587122,-0.383522 -0.7149622,0 -1.1410985,0.421401 -0.4214016,0.421402 -0.4782198,1.046402 z"
         style="font-family:sans-serif;-inkscape-font-specification:sans-serif"
         id="path1080" />
      <path
         d="m 4.9096198,-35.67996 h -0.047349 q -0.1988636,-0.04735 -0.3882576,-0.06629 -0.1846591,-0.02367 -0.4403409,-0.02367 -0.4119318,0 -0.7954546,0.184659 -0.3835227,0.179924 -0.7386363,0.46875 v 3.754735 H 1.6094303 v -5.288826 h 0.8901516 v 0.78125 q 0.530303,-0.426136 0.9327651,-0.601325 0.407197,-0.179925 0.8285985,-0.179925 0.2320076,0 0.3361743,0.01421 0.1041667,0.0095 0.3125,0.04261 z"
         style="font-family:sans-serif;-inkscape-font-specification:sans-serif"
         id="path1082" />
      <path
         d="m 9.6586733,-31.693217 q -0.4450758,0.213068 -0.8475379,0.331439 -0.3977273,0.118371 -0.847538,0.118371 -0.5729166,0 -1.0511363,-0.165719 -0.4782198,-0.170455 -0.8191289,-0.511364 -0.3456439,-0.340909 -0.5350379,-0.861742 -0.1893939,-0.520834 -0.1893939,-1.216856 0,-1.297349 0.7102273,-2.035985 0.7149621,-0.738637 1.8844697,-0.738637 0.4545455,0 0.8901516,0.127841 0.4403409,0.127841 0.8049243,0.3125 v 0.989584 h -0.047349 q -0.407197,-0.317235 -0.8428031,-0.48769 -0.4308712,-0.170454 -0.842803,-0.170454 -0.7575758,0 -1.1979167,0.511363 -0.4356061,0.506629 -0.4356061,1.491478 0,0.956439 0.4261364,1.472537 0.4308712,0.511364 1.2073864,0.511364 0.2698863,0 0.5492424,-0.07102 0.2793561,-0.07102 0.501894,-0.184659 0.1941287,-0.09943 0.3645833,-0.208333 0.1704545,-0.113636 0.2698864,-0.194129 h 0.047349 z"
         style="font-family:sans-serif;-inkscape-font-specification:sans-serif"
         id="path1084" />
      <path
         d="m 14.909621,-31.361778 h -0.885417 v -0.563447 q -0.118371,0.08049 -0.32197,0.227273 -0.198863,0.142045 -0.388257,0.227273 -0.222538,0.108901 -0.511364,0.179924 -0.288826,0.07576 -0.677083,0.07576 -0.714962,0 -1.212121,-0.473485 -0.497159,-0.473485 -0.497159,-1.207387 0,-0.601326 0.255681,-0.970644 0.260417,-0.374053 0.738637,-0.587121 0.482954,-0.213068 1.160038,-0.288826 0.677083,-0.07576 1.453598,-0.113636 v -0.137311 q 0,-0.30303 -0.108901,-0.501894 -0.104167,-0.198863 -0.303031,-0.3125 -0.189394,-0.108901 -0.454545,-0.14678 -0.265152,-0.03788 -0.553977,-0.03788 -0.350379,0 -0.78125,0.0947 -0.430872,0.08996 -0.890152,0.265152 H 10.885 v -0.904356 q 0.260416,-0.07102 0.75284,-0.15625 0.492425,-0.08523 0.970644,-0.08523 0.558713,0 0.970644,0.0947 0.416667,0.08996 0.719697,0.3125 0.298296,0.217803 0.454546,0.563447 0.15625,0.345644 0.15625,0.857008 z m -0.885417,-1.302083 v -1.472538 q -0.407197,0.02367 -0.961174,0.07102 -0.549243,0.04735 -0.871212,0.13731 -0.383523,0.108902 -0.620265,0.340909 -0.236743,0.227273 -0.236743,0.629735 0,0.454546 0.274621,0.686553 0.274622,0.227273 0.838069,0.227273 0.46875,0 0.857007,-0.179924 0.388258,-0.184659 0.719697,-0.440341 z"
         style="font-family:sans-serif;-inkscape-font-specification:sans-serif"
         id="path1086" />
      <path
         d="m 19.369848,-31.409126 q -0.250947,0.06629 -0.549242,0.108901 -0.293561,0.04261 -0.525568,0.04261 -0.809659,0 -1.231061,-0.435606 -0.421401,-0.435606 -0.421401,-1.396781 v -2.8125 H 16.04125 v -0.748106 h 0.601326 v -1.519886 h 0.890151 v 1.519886 h 1.837121 v 0.748106 h -1.837121 v 2.410038 q 0,0.416667 0.01894,0.653409 0.01894,0.232008 0.132575,0.435607 0.104167,0.189393 0.284091,0.279356 0.184659,0.08523 0.558712,0.08523 0.217803,0 0.454546,-0.06155 0.236742,-0.06629 0.340909,-0.108902 h 0.04735 z"
         style="font-family:sans-serif;-inkscape-font-specification:sans-serif"
         id="path1088" />
      <path
         d="m 24.952234,-34.003823 q 0,1.292613 -0.662879,2.040719 -0.662878,0.748107 -1.775568,0.748107 -1.122159,0 -1.785038,-0.748107 -0.658144,-0.748106 -0.658144,-2.040719 0,-1.292614 0.658144,-2.04072 0.662879,-0.752841 1.785038,-0.752841 1.11269,0 1.775568,0.752841 0.662879,0.748106 0.662879,2.04072 z m -0.91856,0 q 0,-1.027462 -0.402463,-1.524622 -0.402462,-0.501894 -1.117424,-0.501894 -0.724432,0 -1.126894,0.501894 -0.397727,0.49716 -0.397727,1.524622 0,0.994318 0.402462,1.510416 0.402462,0.511364 1.122159,0.511364 0.710227,0 1.11269,-0.506629 0.407197,-0.511363 0.407197,-1.515151 z"
         style="font-family:sans-serif;-inkscape-font-specification:sans-serif"
         id="path1090" />
      <path
         d="m 29.630266,-35.67996 h -0.04735 q -0.198863,-0.04735 -0.388257,-0.06629 -0.184659,-0.02367 -0.440341,-0.02367 -0.411932,0 -0.795455,0.184659 -0.383523,0.179924 -0.738636,0.46875 v 3.754735 h -0.890152 v -5.288826 h 0.890152 v 0.78125 q 0.530303,-0.426136 0.932765,-0.601325 0.407197,-0.179925 0.828598,-0.179925 0.232008,0 0.336175,0.01421 0.104166,0.0095 0.3125,0.04261 z"
         style="font-family:sans-serif;-inkscape-font-specification:sans-serif"
         id="path1092" />
      <path
         d="m 39.78178,-31.361778 h -1.216856 l -2.357954,-2.80303 h -1.321023 v 2.80303 h -0.9375 v -7.050189 h 1.974432 q 0.639204,0 1.065341,0.08523 0.426136,0.08049 0.767045,0.293561 0.383523,0.241477 0.596591,0.610795 0.217803,0.364583 0.217803,0.92803 0,0.762311 -0.383523,1.278409 -0.383522,0.511364 -1.055871,0.771781 z m -2.192234,-5.066288 q 0,-0.30303 -0.108902,-0.535038 -0.104167,-0.236742 -0.350379,-0.397727 -0.203598,-0.137311 -0.482954,-0.189394 -0.279356,-0.05682 -0.658144,-0.05682 h -1.10322 v 2.660985 h 0.94697 q 0.445075,0 0.776515,-0.07576 0.331439,-0.08049 0.563447,-0.29356 0.213068,-0.198864 0.3125,-0.454546 0.104167,-0.260417 0.104167,-0.658144 z"
         style="font-family:sans-serif;-inkscape-font-specification:sans-serif"
         id="path1094" />
      <path
         d="m 44.810192,-33.913861 h -3.896781 q 0,0.487689 0.14678,0.852273 0.146781,0.359848 0.402463,0.591856 0.246212,0.227272 0.582386,0.340909 0.340909,0.113636 0.748106,0.113636 0.539773,0 1.08428,-0.213068 0.549243,-0.217803 0.78125,-0.426136 h 0.04735 v 0.970644 q -0.449811,0.189393 -0.918561,0.317234 -0.46875,0.127841 -0.984848,0.127841 -1.316288,0 -2.054925,-0.710227 -0.738636,-0.714962 -0.738636,-2.026515 0,-1.297349 0.705493,-2.059659 0.710227,-0.762311 1.86553,-0.762311 1.070076,0 1.647727,0.625 0.582387,0.625 0.582387,1.775568 z m -0.866478,-0.681818 q -0.0047,-0.700758 -0.355113,-1.084281 -0.345644,-0.383522 -1.055872,-0.383522 -0.714962,0 -1.141098,0.421401 -0.421402,0.421402 -0.47822,1.046402 z"
         style="font-family:sans-serif;-inkscape-font-specification:sans-serif"
         id="path1096" />
      <path
         d="m 50.586704,-33.913861 h -3.896781 q 0,0.487689 0.146781,0.852273 0.14678,0.359848 0.402462,0.591856 0.246212,0.227272 0.582386,0.340909 0.340909,0.113636 0.748106,0.113636 0.539773,0 1.084281,-0.213068 0.549242,-0.217803 0.78125,-0.426136 h 0.04735 v 0.970644 q -0.449811,0.189393 -0.918561,0.317234 -0.46875,0.127841 -0.984848,0.127841 -1.316288,0 -2.054924,-0.710227 -0.738637,-0.714962 -0.738637,-2.026515 0,-1.297349 0.705493,-2.059659 0.710227,-0.762311 1.86553,-0.762311 1.070076,0 1.647727,0.625 0.582387,0.625 0.582387,1.775568 z m -0.866478,-0.681818 q -0.0047,-0.700758 -0.355113,-1.084281 -0.345644,-0.383522 -1.055871,-0.383522 -0.714963,0 -1.141099,0.421401 -0.421401,0.421402 -0.47822,1.046402 z"
         style="font-family:sans-serif;-inkscape-font-specification:sans-serif"
         id="path1098" />
      <path
         d="m 54.781784,-37.86746 h -0.04735 q -0.146781,-0.04261 -0.383523,-0.08523 -0.236743,-0.04735 -0.416667,-0.04735 -0.572917,0 -0.833333,0.255682 -0.255682,0.250947 -0.255682,0.913826 v 0.179924 h 1.605114 v 0.748106 H 52.87364 v 4.54072 h -0.890151 v -4.54072 h -0.601326 v -0.748106 h 0.601326 v -0.175189 q 0,-0.942235 0.46875,-1.444129 0.46875,-0.506629 1.354166,-0.506629 0.298296,0 0.535038,0.02841 0.241477,0.02841 0.440341,0.06629 z"
         style="font-family:sans-serif;-inkscape-font-specification:sans-serif"
         id="path1100" />
    </g>
  </g>
  <g
     id="dc688d1f-a066-b7e7-8abc-115fa40e9445"
     transform="matrix(0.22552057488297111,0,0,0.22552057488297111,34.522743981666856,117.0177449672735)">
    <path
       class="st1"
       d="M119-347.6c5.7,0,7.8,6.6,4.5,10.8c-7.2,8.4-14.4,16.5-21.6,24.9c-2.1,2.4-6.6,2.4-9,0   c-7.2-8.4-14.4-16.5-21.6-24.9c-4.5-5.1,1.2-12.3,6.3-10.8h13.2c-7.2-28.8-29.1-52.5-58.8-59.1c-5.7-1.2-11.4-1.8-17.1-1.8   c-28.8,0-55.5,15.9-69.6,42c-3.9,7.2-14.7,0.9-10.8-6.3c19.2-34.8,59.4-54.9,98.7-46.2c35.4,7.5,63,36,70.2,71.4   C103.4-347.6,119-347.6,119-347.6z M-83.2-309.2c-5.7,0-7.8-6.6-4.5-10.8c7.2-8.4,14.4-16.5,21.6-24.9c2.1-2.4,6.6-2.4,9,0   c7.2,8.4,14.4,16.5,21.6,24.9c4.5,5.1-1.2,12.3-6.3,10.8H-55c7.2,28.8,29.1,52.5,58.8,59.1c5.7,1.2,11.4,1.8,17.1,1.8   c28.8,0,55.5-15.9,69.6-42c3.9-7.2,14.7-0.9,10.8,6.3c-19.2,35.1-59.4,55.2-98.7,46.5c-35.4-7.8-63.3-36.3-70.5-71.7H-83.2z"
       id="path52" />
  </g>
</svg>
