<?xml version="1.0" encoding="UTF-8" standalone="no"?>
<svg
   version="1.1"
   id="Layer_1"
   x="0px"
   y="0px"
   viewBox="0 0 254 83"
   style="enable-background:new 0 0 254 83;"
   sodipodi:docname="elegant_oceanic.svg"
   inkscape:version="1.2 (dc2aeda, 2022-05-15)"
   xmlns:inkscape="http://www.inkscape.org/namespaces/inkscape"
   xmlns:sodipodi="http://sodipodi.sourceforge.net/DTD/sodipodi-0.dtd"
   xmlns="http://www.w3.org/2000/svg"
   xmlns:svg="http://www.w3.org/2000/svg">
  <defs
     id="defs58" />
  <sodipodi:namedview
     id="namedview56"
     pagecolor="#ffffff"
     bordercolor="#666666"
     borderopacity="1.0"
     inkscape:showpageshadow="2"
     inkscape:pageopacity="0.0"
     inkscape:pagecheckerboard="0"
     inkscape:deskcolor="#d1d1d1"
     showgrid="false"
     inkscape:zoom="4.9055118"
     inkscape:cx="133.82905"
     inkscape:cy="49.841894"
     inkscape:window-width="1601"
     inkscape:window-height="889"
     inkscape:window-x="2606"
     inkscape:window-y="215"
     inkscape:window-maximized="0"
     inkscape:current-layer="text272" />
  <style
     type="text/css"
     id="style47">
	.st0{fill:#2E3034;}
	.st1{fill:#488EFF;}
</style>
  <g
     id="_x30_b742467-27ea-ae3f-7cfa-ca0e10ac04e7"
     transform="matrix(2.2,0,0,2.2,103.8876416683197,132.35599603652955)">
    <g
       aria-label="ElegantOTA
Mercator Oceanic"
       id="text272"
       style="font-size:9.69697px;line-height:1.25;font-family:treb;-inkscape-font-specification:treb;stroke-width:0.454545">
      <g
         id="g653">
        <path
           d="m -12.367547,-43.48299 v -6.569603 h 3.6709878 v 0.69691 h -2.7388138 v 2.108488 h 2.2949217 v 0.688033 h -2.2949217 v 2.379261 h 2.9296874 v 0.696911 z"
           style="font-size:9.09091px;font-family:'Lucida Grande';-inkscape-font-specification:'Lucida Grande'"
           id="path552" />
        <path
           d="m -7.413711,-43.48299 v -7.009056 h 0.8744674 v 7.009056 z"
           style="font-size:9.09091px;font-family:'Lucida Grande';-inkscape-font-specification:'Lucida Grande'"
           id="path554" />
        <path
           d="m -1.252489,-43.638352 q -0.8789064,0.266335 -1.5047942,0.266335 -1.065341,0 -1.740057,-0.705789 -0.670277,-0.710227 -0.670277,-1.837713 0,-1.096413 0.5903764,-1.797763 0.5948154,-0.701349 1.518111,-0.701349 0.8744674,0 1.3494319,0.621449 0.4794035,0.621448 0.4794035,1.76669 l -0.00444,0.270774 h -3.0406608 q 0.1908736,1.717863 1.682351,1.717863 0.5459872,0 1.3405541,-0.292969 z m -2.9829548,-2.774326 h 2.1262431 q 0,-1.344993 -1.0031962,-1.344993 -1.007635,0 -1.1230469,1.344993 z"
           style="font-size:9.09091px;font-family:'Lucida Grande';-inkscape-font-specification:'Lucida Grande'"
           id="path556" />
        <path
           d="m 0.29669449,-41.88054 0.10209518,-0.759055 q 0.75905543,0.359552 1.49591633,0.359552 1.4781607,0 1.4781607,-1.566939 v -0.759055 q -0.4838424,1.012074 -1.5891337,1.012074 -0.86558958,0 -1.37606548,-0.630327 -0.51047591,-0.630327 -0.51047591,-1.700107 0,-1.100852 0.58149864,-1.793324 0.58149865,-0.692471 1.50479415,-0.692471 0.8078836,0 1.3893823,0.65696 v -0.550426 H 4.251773 v 3.506747 q 0,1.131925 -0.1198509,1.673473 -0.1154119,0.545988 -0.4394531,0.892223 -0.5726208,0.608133 -1.7800073,0.608133 -0.843395,0 -1.61576721,-0.257458 z m 3.07617221,-3.271485 v -2.001953 q -0.5770598,-0.599254 -1.2562146,-0.599254 -0.6036933,0 -0.9454902,0.483842 -0.3417969,0.483843 -0.3417969,1.327238 0,1.584694 1.1141691,1.584694 0.7590555,0 1.4293326,-0.794567 z"
           style="font-size:9.09091px;font-family:'Lucida Grande';-inkscape-font-specification:'Lucida Grande'"
           id="path558" />
        <path
           d="m 8.4332373,-44.095561 q -0.785689,0.723544 -1.513672,0.723544 -0.5992543,0 -0.9943183,-0.37287 -0.3950639,-0.377308 -0.3950639,-0.949929 0,-0.790128 0.6613992,-1.211825 0.6658381,-0.426136 1.904297,-0.426136 h 0.2086293 v -0.581499 q 0,-0.838956 -0.8611506,-0.838956 -0.6924717,0 -1.4959164,0.426136 v -0.723544 q 0.8833453,-0.359552 1.6557175,-0.359552 0.8078836,0 1.1896308,0.363991 0.3861861,0.363992 0.3861861,1.131925 v 2.183949 q 0,0.750178 0.4616478,0.750178 0.057706,0 0.168679,-0.01776 l 0.062145,0.483842 q -0.2974077,0.142046 -0.6569603,0.142046 -0.6125711,0 -0.7812501,-0.723544 z m -0.1287287,-0.474965 v -1.247337 l -0.2929688,-0.0089 q -0.7191052,0 -1.1629972,0.275213 -0.4438921,0.270774 -0.4438921,0.714666 0,0.315163 0.221946,0.53267 0.2219461,0.217507 0.5415484,0.217507 0.5459872,0 1.1363637,-0.483842 z"
           style="font-size:9.09091px;font-family:'Lucida Grande';-inkscape-font-specification:'Lucida Grande'"
           id="path560" />
        <path
           d="m 10.96786,-43.48299 v -4.820668 h 0.874467 v 0.90554 q 0.692472,-1.012074 1.695668,-1.012074 0.625888,0 0.998757,0.399502 0.37287,0.395064 0.37287,1.065341 v 3.462359 h -0.874468 v -3.178268 q 0,-0.537109 -0.159801,-0.763494 -0.155362,-0.230824 -0.519354,-0.230824 -0.803444,0 -1.513672,1.052024 v 3.120562 z"
           style="font-size:9.09091px;font-family:'Lucida Grande';-inkscape-font-specification:'Lucida Grande'"
           id="path562" />
        <path
           d="m 18.056817,-43.372017 q -0.665839,0 -1.038708,-0.381747 -0.372869,-0.381748 -0.372869,-1.060903 v -2.832031 h -0.603693 v -0.65696 h 0.603693 v -0.874468 l 0.874467,-0.08434 v 0.958807 h 1.260654 v 0.65696 h -1.260654 v 2.67223 q 0,0.94549 0.816762,0.94549 0.173118,0 0.421697,-0.05771 v 0.603694 q -0.403942,0.110973 -0.701349,0.110973 z"
           style="font-size:9.09091px;font-family:'Lucida Grande';-inkscape-font-specification:'Lucida Grande'"
           id="path564" />
        <path
           d="m 22.628907,-43.31875 q -1.367188,0 -2.201705,-0.94549 -0.830078,-0.949929 -0.830078,-2.507991 0,-1.566939 0.834517,-2.503551 0.838956,-0.941051 2.237216,-0.941051 1.393821,0 2.232777,0.936612 0.838956,0.936612 0.838956,2.499113 0,1.593572 -0.838956,2.530184 -0.838956,0.932174 -2.272727,0.932174 z m 0.01332,-0.696911 q 1.007635,0 1.558061,-0.723544 0.550426,-0.727983 0.550426,-2.050781 0,-1.282848 -0.554865,-2.006393 -0.550426,-0.723544 -1.526989,-0.723544 -0.981001,0 -1.531428,0.727983 -0.550426,0.723544 -0.550426,2.01527 0,1.287287 0.545988,2.024148 0.545987,0.736861 1.509233,0.736861 z"
           style="font-size:9.09091px;font-family:'Lucida Grande';-inkscape-font-specification:'Lucida Grande'"
           id="path566" />
        <path
           d="m 28.608131,-43.48299 v -5.872693 h -2.330434 v -0.69691 h 5.593041 v 0.69691 h -2.330434 v 5.872693 z"
           style="font-size:9.09091px;font-family:'Lucida Grande';-inkscape-font-specification:'Lucida Grande'"
           id="path568" />
        <path
           d="m 36.123227,-45.995419 -1.118608,-2.832032 -1.123047,2.832032 z m 0.98544,2.512429 -0.714666,-1.819958 h -2.783203 l -0.723544,1.819958 h -0.86559 l 2.605646,-6.569603 h 0.923296 l 2.565696,6.569603 z"
           style="font-size:9.09091px;font-family:'Lucida Grande';-inkscape-font-specification:'Lucida Grande'"
           id="path570" />
        <path
           d="m -12.367547,-31.361778 v -6.569603 h 1.291726 l 1.8199578,5.082565 1.8732246,-5.082565 h 1.1541194 v 6.569603 h -0.8700285 v -5.344461 l -1.8110797,4.905008 h -0.901101 l -1.7578126,-4.918324 v 5.357777 z"
           style="font-size:9.09091px;font-family:'Lucida Grande';-inkscape-font-specification:'Lucida Grande'"
           id="path572" />
        <path
           d="m -0.97727577,-31.51714 q -0.87890633,0.266335 -1.50479423,0.266335 -1.065341,0 -1.7400569,-0.705788 -0.6702771,-0.710228 -0.6702771,-1.837713 0,-1.096414 0.5903765,-1.797763 0.5948154,-0.70135 1.5181109,-0.70135 0.8744674,0 1.349432,0.621449 0.47940343,0.621449 0.47940343,1.766691 l -0.004439,0.270774 H -4.0001809 q 0.1908736,1.717862 1.682351,1.717862 0.5459873,0 1.34055413,-0.292969 z m -2.98295483,-2.774326 h 2.1262431 q 0,-1.344993 -1.0031961,-1.344993 -1.0076351,0 -1.123047,1.344993 z"
           style="font-size:9.09091px;font-family:'Lucida Grande';-inkscape-font-specification:'Lucida Grande'"
           id="path574" />
        <path
           d="m 0.55415205,-31.361778 v -4.820668 H 1.4286195 v 0.90554 q 0.5193537,-1.012074 1.5092331,-1.012074 0.1331676,0 0.279652,0.0222 v 0.816761 q -0.226385,-0.07546 -0.3995029,-0.07546 -0.8300782,0 -1.3893822,0.985441 v 3.178267 z"
           style="font-size:9.09091px;font-family:'Lucida Grande';-inkscape-font-specification:'Lucida Grande'"
           id="path576" />
        <path
           d="m 6.1560707,-31.250805 q -0.9765626,0 -1.6202061,-0.723544 -0.6436435,-0.723544 -0.6436435,-1.824396 0,-1.176314 0.6347656,-1.833275 0.6392047,-0.65696 1.7800073,-0.65696 0.563743,0 1.2606536,0.155362 v 0.732422 q -0.7412998,-0.217507 -1.2073865,-0.217507 -0.6702771,0 -1.0786578,0.506037 -0.4039418,0.501598 -0.4039418,1.340554 0,0.812323 0.4172586,1.313921 0.4172585,0.501598 1.0919745,0.501598 0.5992543,0 1.23402,-0.306286 v 0.754617 q -0.8478339,0.257457 -1.4648439,0.257457 z"
           style="font-size:9.09091px;font-family:'Lucida Grande';-inkscape-font-specification:'Lucida Grande'"
           id="path578" />
        <path
           d="m 11.416191,-31.974349 q -0.785689,0.723544 -1.5136717,0.723544 -0.5992543,0 -0.9943183,-0.372869 -0.3950639,-0.377308 -0.3950639,-0.949929 0,-0.790128 0.6613992,-1.211826 0.6658381,-0.426136 1.9042967,-0.426136 h 0.20863 v -0.581499 q 0,-0.838956 -0.861151,-0.838956 -0.6924717,0 -1.4959164,0.426137 v -0.723544 q 0.8833453,-0.359553 1.6557174,-0.359553 0.807884,0 1.189631,0.363992 0.386186,0.363991 0.386186,1.131924 v 2.183949 q 0,0.750178 0.461648,0.750178 0.05771,0 0.168679,-0.01776 l 0.06215,0.483843 q -0.297408,0.142045 -0.656961,0.142045 -0.612571,0 -0.78125,-0.723544 z m -0.128728,-0.474964 v -1.247337 l -0.292969,-0.0089 q -0.719105,0 -1.1629974,0.275213 -0.4438921,0.270774 -0.4438921,0.714666 0,0.315164 0.221946,0.532671 0.2219461,0.217507 0.5415485,0.217507 0.545987,0 1.136364,-0.483842 z"
           style="font-size:9.09091px;font-family:'Lucida Grande';-inkscape-font-specification:'Lucida Grande'"
           id="path580" />
        <path
           d="m 15.397904,-31.250805 q -0.665838,0 -1.038708,-0.381747 -0.372869,-0.381747 -0.372869,-1.060902 v -2.832032 h -0.603693 v -0.65696 h 0.603693 v -0.874467 l 0.874467,-0.08434 v 0.958807 h 1.260654 v 0.65696 h -1.260654 v 2.672231 q 0,0.94549 0.816762,0.94549 0.173118,0 0.421697,-0.05771 v 0.603693 q -0.403941,0.110973 -0.701349,0.110973 z"
           style="font-size:9.09091px;font-family:'Lucida Grande';-inkscape-font-specification:'Lucida Grande'"
           id="path582" />
        <path
           d="m 19.23757,-31.250805 q -1.034268,0 -1.651278,-0.683594 -0.61701,-0.688032 -0.61701,-1.837713 0,-1.162997 0.61701,-1.837713 0.621449,-0.679155 1.682351,-0.679155 1.060902,0 1.677912,0.679155 0.621449,0.674716 0.621449,1.828835 0,1.180753 -0.621449,1.855469 -0.621449,0.674716 -1.708985,0.674716 z m 0.01332,-0.65696 q 1.389382,0 1.389382,-1.873225 0,-1.85103 -1.371626,-1.85103 -1.367188,0 -1.367188,1.859908 0,1.864347 1.349432,1.864347 z"
           style="font-size:9.09091px;font-family:'Lucida Grande';-inkscape-font-specification:'Lucida Grande'"
           id="path584" />
        <path
           d="m 22.935191,-31.361778 v -4.820668 h 0.874467 v 0.90554 q 0.519354,-1.012074 1.509233,-1.012074 0.133168,0 0.279652,0.0222 v 0.816761 q -0.226385,-0.07546 -0.399503,-0.07546 -0.830078,0 -1.389382,0.985441 v 3.178267 z"
           style="font-size:9.09091px;font-family:'Lucida Grande';-inkscape-font-specification:'Lucida Grande'"
           id="path586" />
        <path
           d="m 32.150391,-31.197538 q -1.367187,0 -2.201705,-0.94549 -0.830078,-0.949929 -0.830078,-2.50799 0,-1.566939 0.834517,-2.503552 0.838956,-0.941051 2.237217,-0.941051 1.393821,0 2.232777,0.936613 0.838956,0.936612 0.838956,2.499112 0,1.593573 -0.838956,2.530185 -0.838956,0.932173 -2.272728,0.932173 z m 0.01332,-0.69691 q 1.007635,0 1.558061,-0.723544 0.550426,-0.727983 0.550426,-2.050782 0,-1.282848 -0.554865,-2.006392 -0.550426,-0.723544 -1.526988,-0.723544 -0.981002,0 -1.531428,0.727983 -0.550426,0.723544 -0.550426,2.01527 0,1.287287 0.545987,2.024148 0.545987,0.736861 1.509233,0.736861 z"
           style="font-size:9.09091px;font-family:'Lucida Grande';-inkscape-font-specification:'Lucida Grande'"
           id="path588" />
        <path
           d="m 38.475851,-31.250805 q -0.976563,0 -1.620206,-0.723544 -0.643644,-0.723544 -0.643644,-1.824396 0,-1.176314 0.634766,-1.833275 0.639205,-0.65696 1.780007,-0.65696 0.563743,0 1.260654,0.155362 v 0.732422 q -0.7413,-0.217507 -1.207387,-0.217507 -0.670277,0 -1.078657,0.506037 -0.403942,0.501598 -0.403942,1.340554 0,0.812323 0.417258,1.313921 0.417259,0.501598 1.091975,0.501598 0.599254,0 1.23402,-0.306286 v 0.754617 q -0.847834,0.257457 -1.464844,0.257457 z"
           style="font-size:9.09091px;font-family:'Lucida Grande';-inkscape-font-specification:'Lucida Grande'"
           id="path590" />
        <path
           d="m 44.783559,-31.51714 q -0.878906,0.266335 -1.504794,0.266335 -1.065341,0 -1.740057,-0.705788 -0.670277,-0.710228 -0.670277,-1.837713 0,-1.096414 0.590376,-1.797763 0.594816,-0.70135 1.518111,-0.70135 0.874468,0 1.349432,0.621449 0.479404,0.621449 0.479404,1.766691 l -0.0044,0.270774 h -3.040661 q 0.190873,1.717862 1.682351,1.717862 0.545987,0 1.340554,-0.292969 z m -2.982955,-2.774326 h 2.126243 q 0,-1.344993 -1.003196,-1.344993 -1.007635,0 -1.123047,1.344993 z"
           style="font-size:9.09091px;font-family:'Lucida Grande';-inkscape-font-specification:'Lucida Grande'"
           id="path592" />
        <path
           d="m 48.800781,-31.974349 q -0.785689,0.723544 -1.513672,0.723544 -0.599254,0 -0.994318,-0.372869 -0.395064,-0.377308 -0.395064,-0.949929 0,-0.790128 0.661399,-1.211826 0.665839,-0.426136 1.904297,-0.426136 h 0.20863 v -0.581499 q 0,-0.838956 -0.861151,-0.838956 -0.692472,0 -1.495916,0.426137 v -0.723544 q 0.883345,-0.359553 1.655717,-0.359553 0.807884,0 1.189631,0.363992 0.386186,0.363991 0.386186,1.131924 v 2.183949 q 0,0.750178 0.461648,0.750178 0.05771,0 0.168679,-0.01776 l 0.06215,0.483843 q -0.297408,0.142045 -0.65696,0.142045 -0.612572,0 -0.781251,-0.723544 z m -0.128728,-0.474964 v -1.247337 l -0.292969,-0.0089 q -0.719105,0 -1.162997,0.275213 -0.443892,0.270774 -0.443892,0.714666 0,0.315164 0.221946,0.532671 0.221946,0.217507 0.541548,0.217507 0.545987,0 1.136364,-0.483842 z"
           style="font-size:9.09091px;font-family:'Lucida Grande';-inkscape-font-specification:'Lucida Grande'"
           id="path594" />
        <path
           d="m 51.335406,-31.361778 v -4.820668 h 0.874467 v 0.90554 q 0.692472,-1.012074 1.695668,-1.012074 0.625888,0 0.998757,0.399503 0.37287,0.395064 0.37287,1.065341 v 3.462358 H 54.4027 v -3.178267 q 0,-0.53711 -0.159801,-0.763495 -0.155362,-0.230823 -0.519354,-0.230823 -0.803444,0 -1.513672,1.052024 v 3.120561 z"
           style="font-size:9.09091px;font-family:'Lucida Grande';-inkscape-font-specification:'Lucida Grande'"
           id="path596" />
        <path
           d="m 56.977278,-31.361778 v -4.820668 h 0.874468 v 4.820668 z m 0,-5.695135 v -0.874468 h 0.874468 v 0.874468 z"
           style="font-size:9.09091px;font-family:'Lucida Grande';-inkscape-font-specification:'Lucida Grande'"
           id="path598" />
        <path
           d="m 61.487219,-31.250805 q -0.976563,0 -1.620206,-0.723544 -0.643644,-0.723544 -0.643644,-1.824396 0,-1.176314 0.634766,-1.833275 0.639205,-0.65696 1.780007,-0.65696 0.563743,0 1.260654,0.155362 v 0.732422 q -0.7413,-0.217507 -1.207387,-0.217507 -0.670277,0 -1.078658,0.506037 -0.403941,0.501598 -0.403941,1.340554 0,0.812323 0.417258,1.313921 0.417259,0.501598 1.091975,0.501598 0.599254,0 1.23402,-0.306286 v 0.754617 q -0.847834,0.257457 -1.464844,0.257457 z"
           style="font-size:9.09091px;font-family:'Lucida Grande';-inkscape-font-specification:'Lucida Grande'"
           id="path600" />
      </g>
    </g>
  </g>
  <g
     id="dc688d1f-a066-b7e7-8abc-115fa40e9445"
     transform="matrix(0.22552057488297111,0,0,0.22552057488297111,34.522743981666856,117.0177449672735)">
    <path
       class="st1"
       d="M119-347.6c5.7,0,7.8,6.6,4.5,10.8c-7.2,8.4-14.4,16.5-21.6,24.9c-2.1,2.4-6.6,2.4-9,0   c-7.2-8.4-14.4-16.5-21.6-24.9c-4.5-5.1,1.2-12.3,6.3-10.8h13.2c-7.2-28.8-29.1-52.5-58.8-59.1c-5.7-1.2-11.4-1.8-17.1-1.8   c-28.8,0-55.5,15.9-69.6,42c-3.9,7.2-14.7,0.9-10.8-6.3c19.2-34.8,59.4-54.9,98.7-46.2c35.4,7.5,63,36,70.2,71.4   C103.4-347.6,119-347.6,119-347.6z M-83.2-309.2c-5.7,0-7.8-6.6-4.5-10.8c7.2-8.4,14.4-16.5,21.6-24.9c2.1-2.4,6.6-2.4,9,0   c7.2,8.4,14.4,16.5,21.6,24.9c4.5,5.1-1.2,12.3-6.3,10.8H-55c7.2,28.8,29.1,52.5,58.8,59.1c5.7,1.2,11.4,1.8,17.1,1.8   c28.8,0,55.5-15.9,69.6-42c3.9-7.2,14.7-0.9,10.8,6.3c-19.2,35.1-59.4,55.2-98.7,46.5c-35.4-7.8-63.3-36.3-70.5-71.7H-83.2z"
       id="path52" />
  </g>
</svg>
