<?xml version="1.0" encoding="UTF-8" standalone="no"?>
<svg
   version="1.1"
   id="Layer_1"
   x="0px"
   y="0px"
   viewBox="0 0 254 83"
   style="enable-background:new 0 0 254 83;"
   sodipodi:docname="elegant_mako.svg"
   inkscape:version="1.2 (dc2aeda, 2022-05-15)"
   xmlns:inkscape="http://www.inkscape.org/namespaces/inkscape"
   xmlns:sodipodi="http://sodipodi.sourceforge.net/DTD/sodipodi-0.dtd"
   xmlns="http://www.w3.org/2000/svg"
   xmlns:svg="http://www.w3.org/2000/svg">
  <defs
     id="defs58" />
  <sodipodi:namedview
     id="namedview56"
     pagecolor="#ffffff"
     bordercolor="#666666"
     borderopacity="1.0"
     inkscape:showpageshadow="2"
     inkscape:pageopacity="0.0"
     inkscape:pagecheckerboard="0"
     inkscape:deskcolor="#d1d1d1"
     showgrid="false"
     inkscape:zoom="4.9055118"
     inkscape:cx="108.55136"
     inkscape:cy="51.676565"
     inkscape:window-width="1601"
     inkscape:window-height="889"
     inkscape:window-x="2740"
     inkscape:window-y="285"
     inkscape:window-maximized="0"
     inkscape:current-layer="text272" />
  <style
     type="text/css"
     id="style47">
	.st0{fill:#2E3034;}
	.st1{fill:#488EFF;}
</style>
  <g
     id="_x30_b742467-27ea-ae3f-7cfa-ca0e10ac04e7"
     transform="matrix(2.2,0,0,2.2,103.8876416683197,132.35599603652955)">
    <g
       aria-label="ElegantaOTA Mercator Mako"
       id="text272"
       style="font-size:9.69697px;line-height:1.25;font-family:treb;-inkscape-font-specification:treb;stroke-width:0.454545">
      <path
         d="m -12.311025,-43.48299 v -7.007576 h 3.9157202 v 0.743371 h -2.9214012 v 2.249053 h 2.4479164 v 0.733902 h -2.4479164 v 2.537879 h 3.1249997 v 0.743371 z"
         style="font-family:'Lucida Grande';-inkscape-font-specification:'Lucida Grande'"
         id="path736" />
      <path
         d="m -7.0269335,-43.48299 v -7.476326 h 0.9327652 v 7.476326 z"
         style="font-family:'Lucida Grande';-inkscape-font-specification:'Lucida Grande'"
         id="path738" />
      <path
         d="m -0.45496398,-43.64871 q -0.93750002,0.284091 -1.60511372,0.284091 -1.1363636,0 -1.8560606,-0.752841 -0.7149622,-0.757576 -0.7149622,-1.960227 0,-1.169508 0.6297349,-1.917614 0.6344697,-0.748106 1.6193182,-0.748106 0.9327652,0 1.43939401,0.662879 0.51136366,0.662879 0.51136366,1.884469 l -0.004735,0.288826 H -3.6793959 q 0.2035985,1.832387 1.7945076,1.832387 0.5823864,0 1.42992432,-0.3125 z m -3.18181832,-2.95928 h 2.2679925 q 0,-1.434659 -1.0700758,-1.434659 -1.0748106,0 -1.1979167,1.434659 z"
         style="font-family:'Lucida Grande';-inkscape-font-specification:'Lucida Grande'"
         id="path740" />
      <path
         d="m 1.1974989,-41.77371 0.1089015,-0.809659 q 0.8096591,0.383523 1.595644,0.383523 1.5767046,0 1.5767046,-1.671402 v -0.809659 q -0.5160985,1.079546 -1.6950758,1.079546 -0.9232955,0 -1.4678031,-0.672349 -0.54450761,-0.672348 -0.54450761,-1.813447 0,-1.174242 0.62026521,-1.912879 0.6202651,-0.738636 1.6051136,-0.738636 0.8617425,0 1.4820077,0.700757 v -0.587121 h 0.9375 v 3.740531 q 0,1.207386 -0.1278409,1.785037 -0.1231061,0.582387 -0.46875,0.951705 -0.6107955,0.648674 -1.8986743,0.648674 -0.8996213,0 -1.7234849,-0.274621 z m 3.2812501,-3.489583 v -2.135417 q -0.6155304,-0.639205 -1.3399622,-0.639205 -0.6439394,0 -1.0085228,0.516099 -0.3645833,0.516098 -0.3645833,1.41572 0,1.690341 1.188447,1.690341 0.8096591,0 1.5246213,-0.847538 z"
         style="font-family:'Lucida Grande';-inkscape-font-specification:'Lucida Grande'"
         id="path742" />
      <path
         d="m 9.8764757,-44.136399 q -0.8380682,0.77178 -1.6145834,0.77178 -0.6392045,0 -1.060606,-0.397727 -0.4214016,-0.402462 -0.4214016,-1.013258 0,-0.842803 0.7054925,-1.292614 0.7102273,-0.454545 2.03125,-0.454545 h 0.2225379 v -0.620265 q 0,-0.894887 -0.9185606,-0.894887 -0.7386364,0 -1.595644,0.454546 v -0.771781 q 0.9422349,-0.383522 1.7660985,-0.383522 0.8617425,0 1.268939,0.388257 0.411932,0.388258 0.411932,1.207387 v 2.329545 q 0,0.80019 0.492425,0.80019 0.06155,0 0.179924,-0.01894 l 0.06629,0.516099 q -0.317235,0.151515 -0.700758,0.151515 -0.653409,0 -0.8333333,-0.77178 z m -0.1373106,-0.506629 v -1.330493 l -0.3125,-0.0095 q -0.7670455,0 -1.2405303,0.29356 -0.4734849,0.288826 -0.4734849,0.762311 0,0.336174 0.2367424,0.568182 0.2367425,0.232007 0.5776516,0.232007 0.5823864,0 1.2121212,-0.516098 z"
         style="font-family:'Lucida Grande';-inkscape-font-specification:'Lucida Grande'"
         id="path744" />
      <path
         d="m 12.580074,-43.48299 v -5.142046 h 0.932766 v 0.965909 q 0.738636,-1.079545 1.808712,-1.079545 0.667613,0 1.065341,0.426136 0.397727,0.421402 0.397727,1.136364 v 3.693182 h -0.932765 v -3.390152 q 0,-0.572917 -0.170455,-0.814394 -0.165719,-0.246212 -0.553977,-0.246212 -0.857008,0 -1.614583,1.122159 v 3.328599 z"
         style="font-family:'Lucida Grande';-inkscape-font-specification:'Lucida Grande'"
         id="path746" />
      <path
         d="m 20.141629,-43.364619 q -0.710227,0 -1.107955,-0.407197 -0.397727,-0.407197 -0.397727,-1.131629 v -3.020833 h -0.643939 v -0.700758 h 0.643939 v -0.932765 l 0.932765,-0.08996 v 1.022727 h 1.344697 v 0.700758 h -1.344697 v 2.850379 q 0,1.008522 0.871213,1.008522 0.184659,0 0.44981,-0.06155 v 0.64394 q -0.430871,0.118371 -0.748106,0.118371 z"
         style="font-family:'Lucida Grande';-inkscape-font-specification:'Lucida Grande'"
         id="path748" />
      <path
         d="m 24.919089,-43.307801 q -1.458333,0 -2.348485,-1.008523 -0.885416,-1.013257 -0.885416,-2.675189 0,-1.671402 0.890151,-2.670455 0.894886,-1.003788 2.386364,-1.003788 1.486742,0 2.381629,0.999053 0.894886,0.999053 0.894886,2.66572 0,1.699811 -0.894886,2.698864 -0.894887,0.994318 -2.424243,0.994318 z m 0.01421,-0.743371 q 1.07481,0 1.661932,-0.77178 0.587121,-0.776516 0.587121,-2.1875 0,-1.368372 -0.591856,-2.140152 -0.587121,-0.77178 -1.628788,-0.77178 -1.046402,0 -1.633523,0.776515 -0.587121,0.77178 -0.587121,2.149621 0,1.373106 0.582386,2.159091 0.582387,0.785985 1.609849,0.785985 z"
         style="font-family:'Lucida Grande';-inkscape-font-specification:'Lucida Grande'"
         id="path752" />
      <path
         d="m 31.296932,-43.48299 v -6.264205 h -2.485796 v -0.743371 h 5.96591 v 0.743371 H 32.29125 v 6.264205 z"
         style="font-family:'Lucida Grande';-inkscape-font-specification:'Lucida Grande'"
         id="path754" />
      <path
         d="m 39.313032,-46.162915 -1.193182,-3.020833 -1.197917,3.020833 z m 1.051136,2.679925 -0.762311,-1.941288 h -2.96875 l -0.77178,1.941288 h -0.923295 l 2.779356,-7.007576 h 0.984848 l 2.736743,7.007576 z"
         style="font-family:'Lucida Grande';-inkscape-font-specification:'Lucida Grande'"
         id="path756" />
      <path
         d="m -12.311025,-31.307945 v -7.007576 h 1.377841 l 1.9412883,5.421402 1.9981061,-5.421402 h 1.2310607 v 7.007576 h -0.9280304 v -5.700757 l -1.9318182,5.232007 h -0.9611743 l -1.8750002,-5.246212 v 5.714962 z"
         style="font-family:'Lucida Grande';-inkscape-font-specification:'Lucida Grande'"
         id="path758" />
      <path
         d="m -0.161403,-31.473664 q -0.9375,0.284091 -1.6051137,0.284091 -1.1363637,0 -1.8560606,-0.752841 -0.7149622,-0.757576 -0.7149622,-1.960228 0,-1.169507 0.6297349,-1.917613 0.6344697,-0.748106 1.6193182,-0.748106 0.9327652,0 1.439394,0.662878 0.51136365,0.662879 0.51136365,1.88447 l -0.004735,0.288826 h -3.2433713 q 0.2035985,1.832386 1.7945076,1.832386 0.5823864,0 1.4299243,-0.3125 z m -3.1818183,-2.959281 h 2.2679925 q 0,-1.434659 -1.0700758,-1.434659 -1.0748106,0 -1.1979167,1.434659 z"
         style="font-family:'Lucida Grande';-inkscape-font-specification:'Lucida Grande'"
         id="path760" />
      <path
         d="m 1.4721205,-31.307945 v -5.142045 h 0.9327651 v 0.965909 q 0.5539773,-1.079546 1.6098486,-1.079546 0.1420454,0 0.2982954,0.02367 v 0.871212 q -0.2414772,-0.08049 -0.4261363,-0.08049 -0.8854167,0 -1.4820077,1.051137 v 3.390151 z"
         style="font-family:'Lucida Grande';-inkscape-font-specification:'Lucida Grande'"
         id="path762" />
      <path
         d="m 7.4474983,-31.189573 q -1.0416667,0 -1.7282197,-0.771781 -0.6865531,-0.77178 -0.6865531,-1.946023 0,-1.254734 0.6770834,-1.955492 0.6818182,-0.700758 1.8986743,-0.700758 0.6013258,0 1.344697,0.16572 v 0.78125 q -0.7907197,-0.232007 -1.2878788,-0.232007 -0.7149622,0 -1.1505683,0.539772 -0.4308712,0.535038 -0.4308712,1.429925 0,0.866477 0.4450758,1.401515 0.4450758,0.535038 1.1647728,0.535038 0.6392045,0 1.3162879,-0.326705 v 0.804924 q -0.9043561,0.274622 -1.5625001,0.274622 z"
         style="font-family:'Lucida Grande';-inkscape-font-specification:'Lucida Grande'"
         id="path764" />
      <path
         d="m 13.058294,-31.961354 q -0.838068,0.771781 -1.614584,0.771781 -0.639204,0 -1.060606,-0.397728 -0.4214013,-0.402462 -0.4214013,-1.013257 0,-0.842803 0.7054923,-1.292614 0.710227,-0.454545 2.03125,-0.454545 h 0.222538 v -0.620266 q 0,-0.894886 -0.918561,-0.894886 -0.738636,0 -1.595643,0.454545 v -0.77178 q 0.942234,-0.383523 1.766098,-0.383523 0.861742,0 1.268939,0.388258 0.411932,0.388258 0.411932,1.207386 v 2.329546 q 0,0.800189 0.492425,0.800189 0.06155,0 0.179924,-0.01894 l 0.06629,0.516098 q -0.317235,0.151516 -0.700758,0.151516 -0.653409,0 -0.833333,-0.771781 z m -0.137311,-0.506629 v -1.330492 l -0.3125,-0.0095 q -0.767045,0 -1.24053,0.293561 -0.473485,0.288826 -0.473485,0.762311 0,0.336174 0.236742,0.568181 0.236743,0.232008 0.577652,0.232008 0.582386,0 1.212121,-0.516099 z"
         style="font-family:'Lucida Grande';-inkscape-font-specification:'Lucida Grande'"
         id="path766" />
      <path
         d="m 17.305453,-31.189573 q -0.710227,0 -1.107954,-0.407197 -0.397728,-0.407197 -0.397728,-1.131629 v -3.020834 h -0.643939 v -0.700757 h 0.643939 v -0.932765 l 0.932765,-0.08996 v 1.022728 h 1.344697 v 0.700757 h -1.344697 v 2.850379 q 0,1.008523 0.871213,1.008523 0.184659,0 0.44981,-0.06155 v 0.643939 q -0.430871,0.118372 -0.748106,0.118372 z"
         style="font-family:'Lucida Grande';-inkscape-font-specification:'Lucida Grande'"
         id="path768" />
      <path
         d="m 21.401097,-31.189573 q -1.10322,0 -1.761364,-0.729167 -0.658143,-0.733902 -0.658143,-1.960227 0,-1.240531 0.658143,-1.960228 0.662879,-0.724432 1.794508,-0.724432 1.131629,0 1.789773,0.724432 0.662879,0.719697 0.662879,1.950758 0,1.25947 -0.662879,1.979167 -0.662879,0.719697 -1.822917,0.719697 z m 0.01421,-0.700758 q 1.482007,0 1.482007,-1.998106 0,-1.974432 -1.463068,-1.974432 -1.458333,0 -1.458333,1.983902 0,1.988636 1.439394,1.988636 z"
         style="font-family:'Lucida Grande';-inkscape-font-specification:'Lucida Grande'"
         id="path770" />
      <path
         d="m 25.345226,-31.307945 v -5.142045 h 0.932766 v 0.965909 q 0.553977,-1.079546 1.609848,-1.079546 0.142046,0 0.298296,0.02367 v 0.871212 q -0.241478,-0.08049 -0.426137,-0.08049 -0.885416,0 -1.482007,1.051137 v 3.390151 z"
         style="font-family:'Lucida Grande';-inkscape-font-specification:'Lucida Grande'"
         id="path772" />
      <path
         d="m 32.352801,-31.307945 v -7.007576 h 1.377841 l 1.941288,5.421402 1.998106,-5.421402 h 1.231061 v 7.007576 h -0.92803 v -5.700757 l -1.931819,5.232007 h -0.961174 l -1.875,-5.246212 v 5.714962 z"
         style="font-family:'Lucida Grande';-inkscape-font-specification:'Lucida Grande'"
         id="path774" />
      <path
         d="m 43.385002,-31.961354 q -0.838069,0.771781 -1.614584,0.771781 -0.639204,0 -1.060606,-0.397728 -0.421401,-0.402462 -0.421401,-1.013257 0,-0.842803 0.705492,-1.292614 0.710227,-0.454545 2.03125,-0.454545 h 0.222538 v -0.620266 q 0,-0.894886 -0.918561,-0.894886 -0.738636,0 -1.595644,0.454545 v -0.77178 q 0.942235,-0.383523 1.766099,-0.383523 0.861742,0 1.268939,0.388258 0.411932,0.388258 0.411932,1.207386 v 2.329546 q 0,0.800189 0.492424,0.800189 0.06155,0 0.179925,-0.01894 l 0.06629,0.516098 q -0.317235,0.151516 -0.700758,0.151516 -0.653409,0 -0.833333,-0.771781 z m -0.137311,-0.506629 v -1.330492 l -0.3125,-0.0095 q -0.767046,0 -1.24053,0.293561 -0.473485,0.288826 -0.473485,0.762311 0,0.336174 0.236742,0.568181 0.236743,0.232008 0.577652,0.232008 0.582386,0 1.212121,-0.516099 z"
         style="font-family:'Lucida Grande';-inkscape-font-specification:'Lucida Grande'"
         id="path776" />
      <path
         d="m 46.0886,-31.307945 v -7.476326 h 0.932766 v 4.829546 l 2.17803,-2.495265 h 1.003788 l -2.078599,2.400568 2.50947,2.741477 h -1.193182 l -2.419507,-2.63731 v 2.63731 z"
         style="font-family:'Lucida Grande';-inkscape-font-specification:'Lucida Grande'"
         id="path778" />
      <path
         d="m 53.768521,-31.189573 q -1.10322,0 -1.761364,-0.729167 -0.658143,-0.733902 -0.658143,-1.960227 0,-1.240531 0.658143,-1.960228 0.662879,-0.724432 1.794508,-0.724432 1.131629,0 1.789773,0.724432 0.662879,0.719697 0.662879,1.950758 0,1.25947 -0.662879,1.979167 -0.662879,0.719697 -1.822917,0.719697 z m 0.0142,-0.700758 q 1.482007,0 1.482007,-1.998106 0,-1.974432 -1.463068,-1.974432 -1.458333,0 -1.458333,1.983902 0,1.988636 1.439394,1.988636 z"
         style="font-family:'Lucida Grande';-inkscape-font-specification:'Lucida Grande'"
         id="path780" />
    </g>
  </g>
  <g
     id="dc688d1f-a066-b7e7-8abc-115fa40e9445"
     transform="matrix(0.22552057488297111,0,0,0.22552057488297111,34.522743981666856,117.0177449672735)">
    <path
       class="st1"
       d="M119-347.6c5.7,0,7.8,6.6,4.5,10.8c-7.2,8.4-14.4,16.5-21.6,24.9c-2.1,2.4-6.6,2.4-9,0   c-7.2-8.4-14.4-16.5-21.6-24.9c-4.5-5.1,1.2-12.3,6.3-10.8h13.2c-7.2-28.8-29.1-52.5-58.8-59.1c-5.7-1.2-11.4-1.8-17.1-1.8   c-28.8,0-55.5,15.9-69.6,42c-3.9,7.2-14.7,0.9-10.8-6.3c19.2-34.8,59.4-54.9,98.7-46.2c35.4,7.5,63,36,70.2,71.4   C103.4-347.6,119-347.6,119-347.6z M-83.2-309.2c-5.7,0-7.8-6.6-4.5-10.8c7.2-8.4,14.4-16.5,21.6-24.9c2.1-2.4,6.6-2.4,9,0   c7.2,8.4,14.4,16.5,21.6,24.9c4.5,5.1-1.2,12.3-6.3,10.8H-55c7.2,28.8,29.1,52.5,58.8,59.1c5.7,1.2,11.4,1.8,17.1,1.8   c28.8,0,55.5-15.9,69.6-42c3.9-7.2,14.7-0.9,10.8,6.3c-19.2,35.1-59.4,55.2-98.7,46.5c-35.4-7.8-63.3-36.3-70.5-71.7H-83.2z"
       id="path52" />
  </g>
</svg>
